<svg xmlns="http://www.w3.org/2000/svg" xmlns:xlink="http://www.w3.org/1999/xlink" width="2000" zoomAndPan="magnify" viewBox="0 0 1500 1499.999933" height="2000" preserveAspectRatio="xMidYMid meet" version="1.0"><defs><clipPath id="cb56381f05"><path d="M 459.71875 881.039062 L 609.828125 881.039062 L 609.828125 961.273438 L 459.71875 961.273438 Z M 459.71875 881.039062 " clip-rule="nonzero"/></clipPath><clipPath id="3b2a2f1281"><path d="M 890 881.039062 L 1040.277344 881.039062 L 1040.277344 961.132812 L 890 961.132812 Z M 890 881.039062 " clip-rule="nonzero"/></clipPath><clipPath id="570ab17048"><path d="M 725 538 L 849 538 L 849 569 L 725 569 Z M 725 538 " clip-rule="nonzero"/></clipPath><clipPath id="cd18ed6f9d"><path d="M 671.3125 459.945312 L 996.792969 620.671875 L 828.757812 960.945312 L 503.28125 800.21875 Z M 671.3125 459.945312 " clip-rule="nonzero"/></clipPath><clipPath id="f59be7690f"><path d="M 671.3125 459.945312 L 996.792969 620.671875 L 828.757812 960.945312 L 503.28125 800.21875 Z M 671.3125 459.945312 " clip-rule="nonzero"/></clipPath><clipPath id="70e9901773"><path d="M 671.3125 459.945312 L 996.792969 620.671875 L 828.757812 960.945312 L 503.28125 800.21875 Z M 671.3125 459.945312 " clip-rule="nonzero"/></clipPath><clipPath id="dc03cef4ce"><path d="M 741 547 L 764 547 L 764 562 L 741 562 Z M 741 547 " clip-rule="nonzero"/></clipPath><clipPath id="3a08d3bd8a"><path d="M 671.3125 459.945312 L 996.792969 620.671875 L 828.757812 960.945312 L 503.28125 800.21875 Z M 671.3125 459.945312 " clip-rule="nonzero"/></clipPath><clipPath id="93b951a336"><path d="M 671.3125 459.945312 L 996.792969 620.671875 L 828.757812 960.945312 L 503.28125 800.21875 Z M 671.3125 459.945312 " clip-rule="nonzero"/></clipPath><clipPath id="15e58a5971"><path d="M 671.3125 459.945312 L 996.792969 620.671875 L 828.757812 960.945312 L 503.28125 800.21875 Z M 671.3125 459.945312 " clip-rule="nonzero"/></clipPath><clipPath id="6b4e174c62"><path d="M 782 539 L 808 539 L 808 558 L 782 558 Z M 782 539 " clip-rule="nonzero"/></clipPath><clipPath id="f898f317d0"><path d="M 671.3125 459.945312 L 996.792969 620.671875 L 828.757812 960.945312 L 503.28125 800.21875 Z M 671.3125 459.945312 " clip-rule="nonzero"/></clipPath><clipPath id="c58bc70814"><path d="M 671.3125 459.945312 L 996.792969 620.671875 L 828.757812 960.945312 L 503.28125 800.21875 Z M 671.3125 459.945312 " clip-rule="nonzero"/></clipPath><clipPath id="0ea43cf406"><path d="M 671.3125 459.945312 L 996.792969 620.671875 L 828.757812 960.945312 L 503.28125 800.21875 Z M 671.3125 459.945312 " clip-rule="nonzero"/></clipPath><clipPath id="78fb7d9ee5"><path d="M 725 553 L 847 553 L 847 605 L 725 605 Z M 725 553 " clip-rule="nonzero"/></clipPath><clipPath id="1cb59983c7"><path d="M 671.3125 459.945312 L 996.792969 620.671875 L 828.757812 960.945312 L 503.28125 800.21875 Z M 671.3125 459.945312 " clip-rule="nonzero"/></clipPath><clipPath id="bad0f038d7"><path d="M 671.3125 459.945312 L 996.792969 620.671875 L 828.757812 960.945312 L 503.28125 800.21875 Z M 671.3125 459.945312 " clip-rule="nonzero"/></clipPath><clipPath id="5a8227c8ad"><path d="M 671.3125 459.945312 L 996.792969 620.671875 L 828.757812 960.945312 L 503.28125 800.21875 Z M 671.3125 459.945312 " clip-rule="nonzero"/></clipPath><clipPath id="614055b559"><path d="M 766 539 L 788 539 L 788 561 L 766 561 Z M 766 539 " clip-rule="nonzero"/></clipPath><clipPath id="acaa51d793"><path d="M 671.3125 459.945312 L 996.792969 620.671875 L 828.757812 960.945312 L 503.28125 800.21875 Z M 671.3125 459.945312 " clip-rule="nonzero"/></clipPath><clipPath id="61af24f819"><path d="M 671.3125 459.945312 L 996.792969 620.671875 L 828.757812 960.945312 L 503.28125 800.21875 Z M 671.3125 459.945312 " clip-rule="nonzero"/></clipPath><clipPath id="e93e99cb11"><path d="M 671.3125 459.945312 L 996.792969 620.671875 L 828.757812 960.945312 L 503.28125 800.21875 Z M 671.3125 459.945312 " clip-rule="nonzero"/></clipPath><clipPath id="e0cecb4156"><path d="M 808 538 L 828 538 L 828 558 L 808 558 Z M 808 538 " clip-rule="nonzero"/></clipPath><clipPath id="e6e2dc3c1e"><path d="M 671.3125 459.945312 L 996.792969 620.671875 L 828.757812 960.945312 L 503.28125 800.21875 Z M 671.3125 459.945312 " clip-rule="nonzero"/></clipPath><clipPath id="9bf4040684"><path d="M 671.3125 459.945312 L 996.792969 620.671875 L 828.757812 960.945312 L 503.28125 800.21875 Z M 671.3125 459.945312 " clip-rule="nonzero"/></clipPath><clipPath id="eef54c2d83"><path d="M 671.3125 459.945312 L 996.792969 620.671875 L 828.757812 960.945312 L 503.28125 800.21875 Z M 671.3125 459.945312 " clip-rule="nonzero"/></clipPath><clipPath id="92384f2602"><path d="M 764 559 L 808 559 L 808 601 L 764 601 Z M 764 559 " clip-rule="nonzero"/></clipPath><clipPath id="21f98f9f67"><path d="M 671.3125 459.945312 L 996.792969 620.671875 L 828.757812 960.945312 L 503.28125 800.21875 Z M 671.3125 459.945312 " clip-rule="nonzero"/></clipPath><clipPath id="a2d8581109"><path d="M 671.3125 459.945312 L 996.792969 620.671875 L 828.757812 960.945312 L 503.28125 800.21875 Z M 671.3125 459.945312 " clip-rule="nonzero"/></clipPath><clipPath id="144e2dc530"><path d="M 671.3125 459.945312 L 996.792969 620.671875 L 828.757812 960.945312 L 503.28125 800.21875 Z M 671.3125 459.945312 " clip-rule="nonzero"/></clipPath><clipPath id="13f33c1232"><path d="M 784 598 L 798 598 L 798 607 L 784 607 Z M 784 598 " clip-rule="nonzero"/></clipPath><clipPath id="0d8e22077a"><path d="M 671.3125 459.945312 L 996.792969 620.671875 L 828.757812 960.945312 L 503.28125 800.21875 Z M 671.3125 459.945312 " clip-rule="nonzero"/></clipPath><clipPath id="123ff1931c"><path d="M 671.3125 459.945312 L 996.792969 620.671875 L 828.757812 960.945312 L 503.28125 800.21875 Z M 671.3125 459.945312 " clip-rule="nonzero"/></clipPath><clipPath id="a37f31c71c"><path d="M 671.3125 459.945312 L 996.792969 620.671875 L 828.757812 960.945312 L 503.28125 800.21875 Z M 671.3125 459.945312 " clip-rule="nonzero"/></clipPath><clipPath id="efd3f4d295"><path d="M 782 600 L 802 600 L 802 610 L 782 610 Z M 782 600 " clip-rule="nonzero"/></clipPath><clipPath id="57b8ebc1ed"><path d="M 671.3125 459.945312 L 996.792969 620.671875 L 828.757812 960.945312 L 503.28125 800.21875 Z M 671.3125 459.945312 " clip-rule="nonzero"/></clipPath><clipPath id="2c7fac5d5b"><path d="M 671.3125 459.945312 L 996.792969 620.671875 L 828.757812 960.945312 L 503.28125 800.21875 Z M 671.3125 459.945312 " clip-rule="nonzero"/></clipPath><clipPath id="7fa38ca5a4"><path d="M 671.3125 459.945312 L 996.792969 620.671875 L 828.757812 960.945312 L 503.28125 800.21875 Z M 671.3125 459.945312 " clip-rule="nonzero"/></clipPath><clipPath id="946614c08e"><path d="M 798 603 L 927 603 L 927 726 L 798 726 Z M 798 603 " clip-rule="nonzero"/></clipPath><clipPath id="8a0c31a6b4"><path d="M 671.3125 459.945312 L 996.792969 620.671875 L 828.757812 960.945312 L 503.28125 800.21875 Z M 671.3125 459.945312 " clip-rule="nonzero"/></clipPath><clipPath id="d09259965e"><path d="M 671.3125 459.945312 L 996.792969 620.671875 L 828.757812 960.945312 L 503.28125 800.21875 Z M 671.3125 459.945312 " clip-rule="nonzero"/></clipPath><clipPath id="0eb70eaba7"><path d="M 671.3125 459.945312 L 996.792969 620.671875 L 828.757812 960.945312 L 503.28125 800.21875 Z M 671.3125 459.945312 " clip-rule="nonzero"/></clipPath><clipPath id="79b61b4607"><path d="M 926 725 L 927 725 L 927 730 L 926 730 Z M 926 725 " clip-rule="nonzero"/></clipPath><clipPath id="e6428bcc20"><path d="M 671.3125 459.945312 L 996.792969 620.671875 L 828.757812 960.945312 L 503.28125 800.21875 Z M 671.3125 459.945312 " clip-rule="nonzero"/></clipPath><clipPath id="e0452f4cad"><path d="M 671.3125 459.945312 L 996.792969 620.671875 L 828.757812 960.945312 L 503.28125 800.21875 Z M 671.3125 459.945312 " clip-rule="nonzero"/></clipPath><clipPath id="b3196077a5"><path d="M 671.3125 459.945312 L 996.792969 620.671875 L 828.757812 960.945312 L 503.28125 800.21875 Z M 671.3125 459.945312 " clip-rule="nonzero"/></clipPath><clipPath id="637f1254b3"><path d="M 687 606 L 786 606 L 786 814 L 687 814 Z M 687 606 " clip-rule="nonzero"/></clipPath><clipPath id="905ee24b89"><path d="M 671.3125 459.945312 L 996.792969 620.671875 L 828.757812 960.945312 L 503.28125 800.21875 Z M 671.3125 459.945312 " clip-rule="nonzero"/></clipPath><clipPath id="64b46cb9d8"><path d="M 671.3125 459.945312 L 996.792969 620.671875 L 828.757812 960.945312 L 503.28125 800.21875 Z M 671.3125 459.945312 " clip-rule="nonzero"/></clipPath><clipPath id="09e19d3344"><path d="M 671.3125 459.945312 L 996.792969 620.671875 L 828.757812 960.945312 L 503.28125 800.21875 Z M 671.3125 459.945312 " clip-rule="nonzero"/></clipPath><clipPath id="17840b2c5d"><path d="M 738 821 L 742 821 L 742 825 L 738 825 Z M 738 821 " clip-rule="nonzero"/></clipPath><clipPath id="b751745c06"><path d="M 671.3125 459.945312 L 996.792969 620.671875 L 828.757812 960.945312 L 503.28125 800.21875 Z M 671.3125 459.945312 " clip-rule="nonzero"/></clipPath><clipPath id="45d4a207ac"><path d="M 671.3125 459.945312 L 996.792969 620.671875 L 828.757812 960.945312 L 503.28125 800.21875 Z M 671.3125 459.945312 " clip-rule="nonzero"/></clipPath><clipPath id="c2dcadcb33"><path d="M 671.3125 459.945312 L 996.792969 620.671875 L 828.757812 960.945312 L 503.28125 800.21875 Z M 671.3125 459.945312 " clip-rule="nonzero"/></clipPath><clipPath id="c2865418fb"><path d="M 745 729 L 927 729 L 927 845 L 745 845 Z M 745 729 " clip-rule="nonzero"/></clipPath><clipPath id="2505b218fd"><path d="M 671.3125 459.945312 L 996.792969 620.671875 L 828.757812 960.945312 L 503.28125 800.21875 Z M 671.3125 459.945312 " clip-rule="nonzero"/></clipPath><clipPath id="bf2e6dce9a"><path d="M 671.3125 459.945312 L 996.792969 620.671875 L 828.757812 960.945312 L 503.28125 800.21875 Z M 671.3125 459.945312 " clip-rule="nonzero"/></clipPath><clipPath id="3840721c1e"><path d="M 671.3125 459.945312 L 996.792969 620.671875 L 828.757812 960.945312 L 503.28125 800.21875 Z M 671.3125 459.945312 " clip-rule="nonzero"/></clipPath><clipPath id="5a38f60916"><path d="M 714 665 L 718 665 L 718 671 L 714 671 Z M 714 665 " clip-rule="nonzero"/></clipPath><clipPath id="7e98a2d67a"><path d="M 671.3125 459.945312 L 996.792969 620.671875 L 828.757812 960.945312 L 503.28125 800.21875 Z M 671.3125 459.945312 " clip-rule="nonzero"/></clipPath><clipPath id="eec0ad2634"><path d="M 671.3125 459.945312 L 996.792969 620.671875 L 828.757812 960.945312 L 503.28125 800.21875 Z M 671.3125 459.945312 " clip-rule="nonzero"/></clipPath><clipPath id="3cf1f3f57f"><path d="M 671.3125 459.945312 L 996.792969 620.671875 L 828.757812 960.945312 L 503.28125 800.21875 Z M 671.3125 459.945312 " clip-rule="nonzero"/></clipPath><clipPath id="7d130bb9a7"><path d="M 717 618 L 792 618 L 792 666 L 717 666 Z M 717 618 " clip-rule="nonzero"/></clipPath><clipPath id="cc047596ab"><path d="M 671.3125 459.945312 L 996.792969 620.671875 L 828.757812 960.945312 L 503.28125 800.21875 Z M 671.3125 459.945312 " clip-rule="nonzero"/></clipPath><clipPath id="aa01b0a847"><path d="M 671.3125 459.945312 L 996.792969 620.671875 L 828.757812 960.945312 L 503.28125 800.21875 Z M 671.3125 459.945312 " clip-rule="nonzero"/></clipPath><clipPath id="378b5b3d14"><path d="M 671.3125 459.945312 L 996.792969 620.671875 L 828.757812 960.945312 L 503.28125 800.21875 Z M 671.3125 459.945312 " clip-rule="nonzero"/></clipPath><clipPath id="cd24e43f91"><path d="M 698 670 L 737 670 L 737 806 L 698 806 Z M 698 670 " clip-rule="nonzero"/></clipPath><clipPath id="0fba790ed7"><path d="M 671.3125 459.945312 L 996.792969 620.671875 L 828.757812 960.945312 L 503.28125 800.21875 Z M 671.3125 459.945312 " clip-rule="nonzero"/></clipPath><clipPath id="21b05134a1"><path d="M 671.3125 459.945312 L 996.792969 620.671875 L 828.757812 960.945312 L 503.28125 800.21875 Z M 671.3125 459.945312 " clip-rule="nonzero"/></clipPath><clipPath id="3a509d0ba4"><path d="M 671.3125 459.945312 L 996.792969 620.671875 L 828.757812 960.945312 L 503.28125 800.21875 Z M 671.3125 459.945312 " clip-rule="nonzero"/></clipPath><clipPath id="d1ec410bd7"><path d="M 746 811 L 751 811 L 751 815 L 746 815 Z M 746 811 " clip-rule="nonzero"/></clipPath><clipPath id="e949c68444"><path d="M 671.3125 459.945312 L 996.792969 620.671875 L 828.757812 960.945312 L 503.28125 800.21875 Z M 671.3125 459.945312 " clip-rule="nonzero"/></clipPath><clipPath id="d26483d483"><path d="M 671.3125 459.945312 L 996.792969 620.671875 L 828.757812 960.945312 L 503.28125 800.21875 Z M 671.3125 459.945312 " clip-rule="nonzero"/></clipPath><clipPath id="3d3ca30ae1"><path d="M 671.3125 459.945312 L 996.792969 620.671875 L 828.757812 960.945312 L 503.28125 800.21875 Z M 671.3125 459.945312 " clip-rule="nonzero"/></clipPath><clipPath id="2323770551"><path d="M 755 617 L 913 617 L 913 835 L 755 835 Z M 755 617 " clip-rule="nonzero"/></clipPath><clipPath id="1f5e9a4d05"><path d="M 671.3125 459.945312 L 996.792969 620.671875 L 828.757812 960.945312 L 503.28125 800.21875 Z M 671.3125 459.945312 " clip-rule="nonzero"/></clipPath><clipPath id="124702261f"><path d="M 671.3125 459.945312 L 996.792969 620.671875 L 828.757812 960.945312 L 503.28125 800.21875 Z M 671.3125 459.945312 " clip-rule="nonzero"/></clipPath><clipPath id="910db64074"><path d="M 671.3125 459.945312 L 996.792969 620.671875 L 828.757812 960.945312 L 503.28125 800.21875 Z M 671.3125 459.945312 " clip-rule="nonzero"/></clipPath><clipPath id="4cc1cbd628"><path d="M 716 642 L 778 642 L 778 792 L 716 792 Z M 716 642 " clip-rule="nonzero"/></clipPath><clipPath id="4bc356e335"><path d="M 671.3125 459.945312 L 996.792969 620.671875 L 828.757812 960.945312 L 503.28125 800.21875 Z M 671.3125 459.945312 " clip-rule="nonzero"/></clipPath><clipPath id="90dd4ca5d7"><path d="M 671.3125 459.945312 L 996.792969 620.671875 L 828.757812 960.945312 L 503.28125 800.21875 Z M 671.3125 459.945312 " clip-rule="nonzero"/></clipPath><clipPath id="628c480f45"><path d="M 671.3125 459.945312 L 996.792969 620.671875 L 828.757812 960.945312 L 503.28125 800.21875 Z M 671.3125 459.945312 " clip-rule="nonzero"/></clipPath><clipPath id="506e7ea5df"><path d="M 756 799 L 758 799 L 758 800 L 756 800 Z M 756 799 " clip-rule="nonzero"/></clipPath><clipPath id="615a7724f0"><path d="M 671.3125 459.945312 L 996.792969 620.671875 L 828.757812 960.945312 L 503.28125 800.21875 Z M 671.3125 459.945312 " clip-rule="nonzero"/></clipPath><clipPath id="1022409fea"><path d="M 671.3125 459.945312 L 996.792969 620.671875 L 828.757812 960.945312 L 503.28125 800.21875 Z M 671.3125 459.945312 " clip-rule="nonzero"/></clipPath><clipPath id="e03eaf0b77"><path d="M 671.3125 459.945312 L 996.792969 620.671875 L 828.757812 960.945312 L 503.28125 800.21875 Z M 671.3125 459.945312 " clip-rule="nonzero"/></clipPath><clipPath id="eb15467405"><path d="M 757 799 L 760 799 L 760 802 L 757 802 Z M 757 799 " clip-rule="nonzero"/></clipPath><clipPath id="87feea0c64"><path d="M 671.3125 459.945312 L 996.792969 620.671875 L 828.757812 960.945312 L 503.28125 800.21875 Z M 671.3125 459.945312 " clip-rule="nonzero"/></clipPath><clipPath id="2a4992ad4e"><path d="M 671.3125 459.945312 L 996.792969 620.671875 L 828.757812 960.945312 L 503.28125 800.21875 Z M 671.3125 459.945312 " clip-rule="nonzero"/></clipPath><clipPath id="b248efab2b"><path d="M 671.3125 459.945312 L 996.792969 620.671875 L 828.757812 960.945312 L 503.28125 800.21875 Z M 671.3125 459.945312 " clip-rule="nonzero"/></clipPath><clipPath id="e7fd66b12d"><path d="M 766 805 L 776 805 L 776 810 L 766 810 Z M 766 805 " clip-rule="nonzero"/></clipPath><clipPath id="3bff913cf3"><path d="M 671.3125 459.945312 L 996.792969 620.671875 L 828.757812 960.945312 L 503.28125 800.21875 Z M 671.3125 459.945312 " clip-rule="nonzero"/></clipPath><clipPath id="458214c42a"><path d="M 671.3125 459.945312 L 996.792969 620.671875 L 828.757812 960.945312 L 503.28125 800.21875 Z M 671.3125 459.945312 " clip-rule="nonzero"/></clipPath><clipPath id="4b2990496a"><path d="M 671.3125 459.945312 L 996.792969 620.671875 L 828.757812 960.945312 L 503.28125 800.21875 Z M 671.3125 459.945312 " clip-rule="nonzero"/></clipPath><clipPath id="867608a789"><path d="M 775 636 L 897 636 L 897 814 L 775 814 Z M 775 636 " clip-rule="nonzero"/></clipPath><clipPath id="59f6bffafe"><path d="M 671.3125 459.945312 L 996.792969 620.671875 L 828.757812 960.945312 L 503.28125 800.21875 Z M 671.3125 459.945312 " clip-rule="nonzero"/></clipPath><clipPath id="4fdaa8d223"><path d="M 671.3125 459.945312 L 996.792969 620.671875 L 828.757812 960.945312 L 503.28125 800.21875 Z M 671.3125 459.945312 " clip-rule="nonzero"/></clipPath><clipPath id="f28b14df50"><path d="M 671.3125 459.945312 L 996.792969 620.671875 L 828.757812 960.945312 L 503.28125 800.21875 Z M 671.3125 459.945312 " clip-rule="nonzero"/></clipPath><clipPath id="f09b611cbd"><path d="M 549 756 L 553 756 L 553 777 L 549 777 Z M 549 756 " clip-rule="nonzero"/></clipPath><clipPath id="f64c22d8ea"><path d="M 671.3125 459.945312 L 996.792969 620.671875 L 828.757812 960.945312 L 503.28125 800.21875 Z M 671.3125 459.945312 " clip-rule="nonzero"/></clipPath><clipPath id="82dd1306da"><path d="M 671.3125 459.945312 L 996.792969 620.671875 L 828.757812 960.945312 L 503.28125 800.21875 Z M 671.3125 459.945312 " clip-rule="nonzero"/></clipPath><clipPath id="a72e4f98ef"><path d="M 671.3125 459.945312 L 996.792969 620.671875 L 828.757812 960.945312 L 503.28125 800.21875 Z M 671.3125 459.945312 " clip-rule="nonzero"/></clipPath><clipPath id="60a484d88f"><path d="M 676 625 L 700 625 L 700 630 L 676 630 Z M 676 625 " clip-rule="nonzero"/></clipPath><clipPath id="538d6457ff"><path d="M 671.3125 459.945312 L 996.792969 620.671875 L 828.757812 960.945312 L 503.28125 800.21875 Z M 671.3125 459.945312 " clip-rule="nonzero"/></clipPath><clipPath id="d930acde3e"><path d="M 671.3125 459.945312 L 996.792969 620.671875 L 828.757812 960.945312 L 503.28125 800.21875 Z M 671.3125 459.945312 " clip-rule="nonzero"/></clipPath><clipPath id="59c5d1971c"><path d="M 671.3125 459.945312 L 996.792969 620.671875 L 828.757812 960.945312 L 503.28125 800.21875 Z M 671.3125 459.945312 " clip-rule="nonzero"/></clipPath><clipPath id="033e2cc4fe"><path d="M 549 623 L 708 623 L 708 757 L 549 757 Z M 549 623 " clip-rule="nonzero"/></clipPath><clipPath id="45ff411979"><path d="M 671.3125 459.945312 L 996.792969 620.671875 L 828.757812 960.945312 L 503.28125 800.21875 Z M 671.3125 459.945312 " clip-rule="nonzero"/></clipPath><clipPath id="58194b2dae"><path d="M 671.3125 459.945312 L 996.792969 620.671875 L 828.757812 960.945312 L 503.28125 800.21875 Z M 671.3125 459.945312 " clip-rule="nonzero"/></clipPath><clipPath id="062d328000"><path d="M 671.3125 459.945312 L 996.792969 620.671875 L 828.757812 960.945312 L 503.28125 800.21875 Z M 671.3125 459.945312 " clip-rule="nonzero"/></clipPath><clipPath id="1db79f73f2"><path d="M 707 629 L 712 629 L 712 631 L 707 631 Z M 707 629 " clip-rule="nonzero"/></clipPath><clipPath id="4c2dcd58a0"><path d="M 671.3125 459.945312 L 996.792969 620.671875 L 828.757812 960.945312 L 503.28125 800.21875 Z M 671.3125 459.945312 " clip-rule="nonzero"/></clipPath><clipPath id="17c41262d1"><path d="M 671.3125 459.945312 L 996.792969 620.671875 L 828.757812 960.945312 L 503.28125 800.21875 Z M 671.3125 459.945312 " clip-rule="nonzero"/></clipPath><clipPath id="ef01cc2b6a"><path d="M 671.3125 459.945312 L 996.792969 620.671875 L 828.757812 960.945312 L 503.28125 800.21875 Z M 671.3125 459.945312 " clip-rule="nonzero"/></clipPath><clipPath id="54eb751264"><path d="M 711 630 L 715 630 L 715 632 L 711 632 Z M 711 630 " clip-rule="nonzero"/></clipPath><clipPath id="8edcba2260"><path d="M 671.3125 459.945312 L 996.792969 620.671875 L 828.757812 960.945312 L 503.28125 800.21875 Z M 671.3125 459.945312 " clip-rule="nonzero"/></clipPath><clipPath id="c786ac31ef"><path d="M 671.3125 459.945312 L 996.792969 620.671875 L 828.757812 960.945312 L 503.28125 800.21875 Z M 671.3125 459.945312 " clip-rule="nonzero"/></clipPath><clipPath id="2fa2e21e75"><path d="M 671.3125 459.945312 L 996.792969 620.671875 L 828.757812 960.945312 L 503.28125 800.21875 Z M 671.3125 459.945312 " clip-rule="nonzero"/></clipPath><clipPath id="b5ea54bbed"><path d="M 699 629 L 725 629 L 725 639 L 699 639 Z M 699 629 " clip-rule="nonzero"/></clipPath><clipPath id="60dcd7a815"><path d="M 671.3125 459.945312 L 996.792969 620.671875 L 828.757812 960.945312 L 503.28125 800.21875 Z M 671.3125 459.945312 " clip-rule="nonzero"/></clipPath><clipPath id="7429b389b9"><path d="M 671.3125 459.945312 L 996.792969 620.671875 L 828.757812 960.945312 L 503.28125 800.21875 Z M 671.3125 459.945312 " clip-rule="nonzero"/></clipPath><clipPath id="88a252d6bf"><path d="M 671.3125 459.945312 L 996.792969 620.671875 L 828.757812 960.945312 L 503.28125 800.21875 Z M 671.3125 459.945312 " clip-rule="nonzero"/></clipPath><clipPath id="e8e470841f"><path d="M 728 638 L 730 638 L 730 640 L 728 640 Z M 728 638 " clip-rule="nonzero"/></clipPath><clipPath id="c9efbe6d07"><path d="M 671.3125 459.945312 L 996.792969 620.671875 L 828.757812 960.945312 L 503.28125 800.21875 Z M 671.3125 459.945312 " clip-rule="nonzero"/></clipPath><clipPath id="d0c72ca80c"><path d="M 671.3125 459.945312 L 996.792969 620.671875 L 828.757812 960.945312 L 503.28125 800.21875 Z M 671.3125 459.945312 " clip-rule="nonzero"/></clipPath><clipPath id="684fb09a2a"><path d="M 671.3125 459.945312 L 996.792969 620.671875 L 828.757812 960.945312 L 503.28125 800.21875 Z M 671.3125 459.945312 " clip-rule="nonzero"/></clipPath><clipPath id="e4efc460aa"><path d="M 734 643 L 740 643 L 740 648 L 734 648 Z M 734 643 " clip-rule="nonzero"/></clipPath><clipPath id="553b1fbc93"><path d="M 671.3125 459.945312 L 996.792969 620.671875 L 828.757812 960.945312 L 503.28125 800.21875 Z M 671.3125 459.945312 " clip-rule="nonzero"/></clipPath><clipPath id="dade09e028"><path d="M 671.3125 459.945312 L 996.792969 620.671875 L 828.757812 960.945312 L 503.28125 800.21875 Z M 671.3125 459.945312 " clip-rule="nonzero"/></clipPath><clipPath id="cfaf39573e"><path d="M 671.3125 459.945312 L 996.792969 620.671875 L 828.757812 960.945312 L 503.28125 800.21875 Z M 671.3125 459.945312 " clip-rule="nonzero"/></clipPath><clipPath id="d92bb38816"><path d="M 552 656 L 786 656 L 786 865 L 552 865 Z M 552 656 " clip-rule="nonzero"/></clipPath><clipPath id="155bfc94b7"><path d="M 671.3125 459.945312 L 996.792969 620.671875 L 828.757812 960.945312 L 503.28125 800.21875 Z M 671.3125 459.945312 " clip-rule="nonzero"/></clipPath><clipPath id="82d5447689"><path d="M 671.3125 459.945312 L 996.792969 620.671875 L 828.757812 960.945312 L 503.28125 800.21875 Z M 671.3125 459.945312 " clip-rule="nonzero"/></clipPath><clipPath id="1bfa04fbf2"><path d="M 671.3125 459.945312 L 996.792969 620.671875 L 828.757812 960.945312 L 503.28125 800.21875 Z M 671.3125 459.945312 " clip-rule="nonzero"/></clipPath><clipPath id="7579bb458c"><path d="M 740 665 L 770 665 L 770 720 L 740 720 Z M 740 665 " clip-rule="nonzero"/></clipPath><clipPath id="6e5bb4cfb0"><path d="M 671.3125 459.945312 L 996.792969 620.671875 L 828.757812 960.945312 L 503.28125 800.21875 Z M 671.3125 459.945312 " clip-rule="nonzero"/></clipPath><clipPath id="224e7ac4da"><path d="M 671.3125 459.945312 L 996.792969 620.671875 L 828.757812 960.945312 L 503.28125 800.21875 Z M 671.3125 459.945312 " clip-rule="nonzero"/></clipPath><clipPath id="8846ae8b46"><path d="M 671.3125 459.945312 L 996.792969 620.671875 L 828.757812 960.945312 L 503.28125 800.21875 Z M 671.3125 459.945312 " clip-rule="nonzero"/></clipPath><clipPath id="fcb74c2be0"><path d="M 725 651 L 730 651 L 730 656 L 725 656 Z M 725 651 " clip-rule="nonzero"/></clipPath><clipPath id="7e0a413a2a"><path d="M 671.3125 459.945312 L 996.792969 620.671875 L 828.757812 960.945312 L 503.28125 800.21875 Z M 671.3125 459.945312 " clip-rule="nonzero"/></clipPath><clipPath id="0c7075f88b"><path d="M 671.3125 459.945312 L 996.792969 620.671875 L 828.757812 960.945312 L 503.28125 800.21875 Z M 671.3125 459.945312 " clip-rule="nonzero"/></clipPath><clipPath id="daf7d2c5c3"><path d="M 671.3125 459.945312 L 996.792969 620.671875 L 828.757812 960.945312 L 503.28125 800.21875 Z M 671.3125 459.945312 " clip-rule="nonzero"/></clipPath><clipPath id="f831fc5c0c"><path d="M 558 634 L 774 634 L 774 854 L 558 854 Z M 558 634 " clip-rule="nonzero"/></clipPath><clipPath id="0557faf212"><path d="M 671.3125 459.945312 L 996.792969 620.671875 L 828.757812 960.945312 L 503.28125 800.21875 Z M 671.3125 459.945312 " clip-rule="nonzero"/></clipPath><clipPath id="5d6c5629b9"><path d="M 671.3125 459.945312 L 996.792969 620.671875 L 828.757812 960.945312 L 503.28125 800.21875 Z M 671.3125 459.945312 " clip-rule="nonzero"/></clipPath><clipPath id="50e0c35304"><path d="M 671.3125 459.945312 L 996.792969 620.671875 L 828.757812 960.945312 L 503.28125 800.21875 Z M 671.3125 459.945312 " clip-rule="nonzero"/></clipPath><clipPath id="88c9213da8"><path d="M 731 678 L 732 678 L 732 680 L 731 680 Z M 731 678 " clip-rule="nonzero"/></clipPath><clipPath id="99bfed9b88"><path d="M 671.3125 459.945312 L 996.792969 620.671875 L 828.757812 960.945312 L 503.28125 800.21875 Z M 671.3125 459.945312 " clip-rule="nonzero"/></clipPath><clipPath id="a9130a8f81"><path d="M 671.3125 459.945312 L 996.792969 620.671875 L 828.757812 960.945312 L 503.28125 800.21875 Z M 671.3125 459.945312 " clip-rule="nonzero"/></clipPath><clipPath id="f6cc565e32"><path d="M 671.3125 459.945312 L 996.792969 620.671875 L 828.757812 960.945312 L 503.28125 800.21875 Z M 671.3125 459.945312 " clip-rule="nonzero"/></clipPath><clipPath id="faa3c671b5"><path d="M 732 680 L 756 680 L 756 740 L 732 740 Z M 732 680 " clip-rule="nonzero"/></clipPath><clipPath id="83ef79e1c1"><path d="M 671.3125 459.945312 L 996.792969 620.671875 L 828.757812 960.945312 L 503.28125 800.21875 Z M 671.3125 459.945312 " clip-rule="nonzero"/></clipPath><clipPath id="3799c5f623"><path d="M 671.3125 459.945312 L 996.792969 620.671875 L 828.757812 960.945312 L 503.28125 800.21875 Z M 671.3125 459.945312 " clip-rule="nonzero"/></clipPath><clipPath id="cb67a976ea"><path d="M 671.3125 459.945312 L 996.792969 620.671875 L 828.757812 960.945312 L 503.28125 800.21875 Z M 671.3125 459.945312 " clip-rule="nonzero"/></clipPath><clipPath id="16a8251215"><path d="M 716 666 L 718 666 L 718 668 L 716 668 Z M 716 666 " clip-rule="nonzero"/></clipPath><clipPath id="050736ad13"><path d="M 671.3125 459.945312 L 996.792969 620.671875 L 828.757812 960.945312 L 503.28125 800.21875 Z M 671.3125 459.945312 " clip-rule="nonzero"/></clipPath><clipPath id="ec4005b5d5"><path d="M 671.3125 459.945312 L 996.792969 620.671875 L 828.757812 960.945312 L 503.28125 800.21875 Z M 671.3125 459.945312 " clip-rule="nonzero"/></clipPath><clipPath id="08a2ffffd3"><path d="M 671.3125 459.945312 L 996.792969 620.671875 L 828.757812 960.945312 L 503.28125 800.21875 Z M 671.3125 459.945312 " clip-rule="nonzero"/></clipPath><clipPath id="818c045d8f"><path d="M 577 652 L 757 652 L 757 834 L 577 834 Z M 577 652 " clip-rule="nonzero"/></clipPath><clipPath id="48ce4173e2"><path d="M 671.3125 459.945312 L 996.792969 620.671875 L 828.757812 960.945312 L 503.28125 800.21875 Z M 671.3125 459.945312 " clip-rule="nonzero"/></clipPath><clipPath id="7f7f54f288"><path d="M 671.3125 459.945312 L 996.792969 620.671875 L 828.757812 960.945312 L 503.28125 800.21875 Z M 671.3125 459.945312 " clip-rule="nonzero"/></clipPath><clipPath id="8c0049d7b4"><path d="M 671.3125 459.945312 L 996.792969 620.671875 L 828.757812 960.945312 L 503.28125 800.21875 Z M 671.3125 459.945312 " clip-rule="nonzero"/></clipPath></defs><rect x="-150" width="1800" fill="#ffffff" y="-149.999993" height="1799.99992" fill-opacity="1"/><rect x="-150" width="1800" fill="#f1f1f1" y="-149.999993" height="1799.99992" fill-opacity="1"/><path fill="#252122" d="M 639.980469 912.671875 C 638.851562 910.640625 638.609375 909.804688 638.070312 909.289062 C 634.515625 905.902344 630.800781 902.746094 626.074219 901.0625 C 622.402344 899.761719 619.179688 900.125 615.84375 903.703125 C 622.597656 910.628906 630.917969 910.484375 639.980469 912.671875 Z M 668.589844 937.722656 C 672.453125 941.390625 676.402344 944.960938 680.417969 948.464844 C 683.476562 951.144531 687.117188 952.796875 691.03125 953.777344 C 697.914062 955.496094 703.578125 953.285156 708.5 948.53125 C 707.347656 939.28125 701.757812 934.257812 693.71875 932.117188 C 684.800781 929.742188 675.714844 930.335938 666.746094 932.460938 C 666.417969 932.539062 666.183594 933.042969 665.605469 933.679688 C 666.550781 934.988281 667.375 936.5625 668.589844 937.722656 Z M 745.757812 944.980469 C 739.65625 935.75 731.101562 929.492188 721.523438 924.484375 C 715.539062 921.351562 709.117188 919.902344 702.332031 919.339844 C 687.195312 918.082031 672.105469 919.828125 656.988281 919.453125 C 656.167969 919.4375 655.335938 919.882812 654.101562 920.226562 C 656.175781 923.816406 658.261719 926.808594 661.652344 928.675781 C 664.195312 928.183594 666.574219 927.609375 668.996094 927.269531 C 676.273438 926.246094 683.542969 925.675781 690.886719 927.128906 C 701.519531 929.226562 708.347656 935.34375 711.542969 945.734375 C 712.28125 948.144531 712.066406 950.160156 710.300781 951.875 C 709.039062 953.113281 707.6875 954.324219 706.199219 955.257812 C 699.777344 959.269531 693.15625 959.113281 686.449219 955.972656 C 680.3125 953.101562 675.164062 948.871094 670.375 944.152344 C 667.210938 941.042969 664.054688 937.925781 660.914062 934.839844 C 652.15625 936.839844 643.632812 938.421875 635.332031 940.777344 C 627.144531 943.105469 618.910156 944.53125 610.417969 945.109375 C 600.15625 945.804688 589.96875 945.550781 579.84375 943.945312 C 568.316406 942.117188 558.390625 936.753906 549.6875 929.105469 C 547.539062 927.214844 545.402344 925.03125 544.058594 922.546875 C 540.710938 916.355469 539.5625 909.644531 543.800781 903.515625 C 548.710938 896.402344 555.730469 892.953125 564.566406 894.304688 C 573.605469 895.675781 579.332031 901.488281 582.71875 909.414062 C 585.558594 916.042969 582.304688 923.351562 576.050781 925.429688 C 569.742188 927.527344 562.351562 925.375 561.878906 916.257812 C 561.769531 914.097656 563.246094 911.414062 565.09375 910.855469 C 567.070312 910.246094 568.507812 911.226562 569.503906 913.308594 C 568.800781 913.753906 568.007812 914.125 567.402344 914.695312 C 566.777344 915.285156 566.171875 916 565.84375 916.78125 C 565.050781 918.632812 565.90625 920.707031 567.535156 921.246094 C 574.40625 923.539062 580.917969 917.8125 579.441406 910.730469 C 579.214844 909.652344 578.890625 908.527344 578.347656 907.585938 C 572.21875 896.867188 560.15625 893.242188 550.261719 902.03125 C 547.289062 904.683594 544.59375 907.910156 544.503906 912.265625 C 544.394531 917.339844 545.601562 921.953125 549.578125 925.570312 C 556.296875 931.679688 563.933594 936.066406 572.667969 938.496094 C 580.472656 940.660156 588.527344 940.65625 596.511719 940.914062 C 607.4375 941.269531 618.285156 940.558594 628.894531 937.535156 C 632.738281 936.441406 636.664062 935.65625 640.542969 934.6875 C 644.84375 933.605469 649.15625 932.539062 653.425781 931.335938 C 654.402344 931.0625 655.222656 930.246094 656.21875 929.613281 C 654.550781 926.214844 651.824219 924.167969 649.71875 921.621094 C 647.648438 919.117188 645.003906 917.792969 641.773438 917.148438 C 636.109375 916.019531 630.449219 914.726562 624.925781 913.042969 C 622.007812 912.15625 619.304688 910.429688 616.648438 908.84375 C 614.683594 907.664062 613.558594 905.6875 612.941406 903.449219 C 612.300781 901.136719 612.894531 899.675781 615.066406 898.4375 C 618.542969 896.449219 622.089844 895.996094 625.945312 897.476562 C 632.53125 900.003906 638.273438 903.835938 642.890625 909.070312 C 648.507812 915.4375 647.820312 913.738281 654.933594 914.484375 C 655.808594 914.578125 656.710938 914.472656 657.597656 914.472656 C 670.9375 914.441406 684.28125 914.199219 697.617188 914.492188 C 703.113281 914.613281 708.824219 915.167969 714.023438 916.824219 C 723.191406 919.742188 731.425781 924.652344 738.675781 931.183594 C 743.554688 935.589844 747.089844 940.96875 750.710938 946.332031 C 751.46875 947.453125 751.898438 948.808594 750.242188 949.753906 C 747.910156 948.96875 746.9375 946.773438 745.757812 944.980469 " fill-opacity="1" fill-rule="nonzero"/><g clip-path="url(#cb56381f05)"><path fill="#252122" d="M 480.980469 911.652344 C 480.019531 908.484375 478.226562 905.644531 481.28125 903.296875 C 487.246094 904.113281 488.253906 904.921875 489.035156 909.535156 C 489.714844 913.511719 487.621094 917.675781 483.777344 919.363281 C 475.433594 923.023438 468.582031 919.828125 465.019531 912.160156 C 464.28125 910.558594 463.871094 908.773438 463.488281 907.03125 C 461.992188 900.21875 464.777344 894.082031 470.75 890.554688 C 482.066406 883.867188 494.375 886.285156 504.476562 893.757812 C 509.148438 897.210938 512.925781 901.683594 516.058594 906.628906 C 520.710938 913.976562 525.203125 921.4375 530.003906 928.6875 C 536.195312 938.0625 543.605469 946.402344 552.972656 952.671875 C 563.738281 959.875 575.535156 963.015625 588.492188 960.316406 C 594.585938 959.042969 600.683594 957.757812 606.761719 956.429688 C 607.605469 956.242188 608.484375 955.882812 609.144531 955.347656 C 609.5625 955.011719 609.84375 954.164062 609.761719 953.617188 C 609.675781 953.074219 609.148438 952.367188 608.648438 952.175781 C 607.855469 951.882812 606.894531 951.777344 606.058594 951.90625 C 602.328125 952.484375 598.617188 953.242188 594.886719 953.789062 C 589.175781 954.628906 583.453125 956.003906 577.734375 955.984375 C 564.589844 955.929688 553.664062 950.046875 544.503906 940.980469 C 537.539062 934.085938 531.222656 926.636719 526.492188 917.839844 C 523.015625 911.382812 518.765625 905.285156 514.359375 899.402344 C 511.3125 895.332031 507.835938 891.339844 503.800781 888.320312 C 492.773438 880.066406 479.976562 878.800781 468.214844 885.894531 C 463.488281 888.738281 460.566406 893.132812 459.96875 898.304688 C 458.851562 907.902344 461.378906 916.539062 469.539062 922.609375 C 477.023438 928.164062 488.242188 925.367188 492.382812 917.074219 C 496.097656 909.621094 492.058594 899.757812 484.175781 897.5 C 479.851562 896.261719 476.808594 898.144531 474.640625 901.75 C 474.425781 902.113281 474.21875 902.640625 474.316406 903.007812 C 474.8125 904.929688 475.195312 906.921875 476.019531 908.699219 C 476.746094 910.257812 477.921875 911.6875 480.980469 911.652344 " fill-opacity="1" fill-rule="nonzero"/></g><path fill="#252122" d="M 884.152344 903.46875 C 880.816406 899.890625 877.59375 899.53125 873.929688 900.832031 C 869.195312 902.511719 865.480469 905.671875 861.925781 909.058594 C 861.386719 909.570312 861.144531 910.40625 860.015625 912.4375 C 869.078125 910.253906 877.398438 910.394531 884.152344 903.46875 Z M 834.390625 933.449219 C 833.8125 932.808594 833.578125 932.308594 833.25 932.226562 C 824.28125 930.105469 815.195312 929.507812 806.28125 931.882812 C 798.238281 934.023438 792.648438 939.046875 791.496094 948.300781 C 796.417969 953.054688 802.082031 955.261719 808.964844 953.542969 C 812.878906 952.5625 816.519531 950.914062 819.585938 948.230469 C 823.59375 944.730469 827.550781 941.160156 831.40625 937.492188 C 832.621094 936.332031 833.445312 934.753906 834.390625 933.449219 Z M 749.753906 949.519531 C 748.097656 948.574219 748.527344 947.21875 749.289062 946.097656 C 752.90625 940.734375 756.441406 935.355469 761.324219 930.949219 C 768.574219 924.417969 776.804688 919.511719 785.972656 916.589844 C 791.179688 914.933594 796.882812 914.382812 802.386719 914.257812 C 815.714844 913.964844 829.058594 914.210938 842.398438 914.242188 C 843.289062 914.246094 844.1875 914.34375 845.066406 914.253906 C 852.179688 913.503906 851.488281 915.203125 857.105469 908.835938 C 861.730469 903.601562 867.464844 899.769531 874.050781 897.242188 C 877.90625 895.761719 881.453125 896.21875 884.929688 898.203125 C 887.101562 899.445312 887.703125 900.902344 887.058594 903.214844 C 886.4375 905.457031 885.3125 907.429688 883.347656 908.609375 C 880.691406 910.199219 877.988281 911.921875 875.070312 912.8125 C 869.550781 914.492188 863.894531 915.785156 858.226562 916.914062 C 855 917.558594 852.347656 918.882812 850.277344 921.386719 C 848.171875 923.933594 845.445312 925.980469 843.78125 929.378906 C 844.773438 930.011719 845.59375 930.828125 846.570312 931.105469 C 850.839844 932.308594 855.152344 933.375 859.457031 934.453125 C 863.335938 935.421875 867.257812 936.207031 871.101562 937.300781 C 881.710938 940.324219 892.558594 941.035156 903.484375 940.679688 C 911.472656 940.421875 919.523438 940.429688 927.328125 938.261719 C 936.0625 935.835938 943.699219 931.449219 950.417969 925.335938 C 954.394531 921.71875 955.605469 917.105469 955.5 912.03125 C 955.402344 907.675781 952.707031 904.449219 949.734375 901.804688 C 939.839844 893.007812 927.78125 896.632812 921.648438 907.351562 C 921.105469 908.296875 920.78125 909.417969 920.554688 910.5 C 919.078125 917.578125 925.59375 923.308594 932.464844 921.011719 C 934.097656 920.472656 934.945312 918.398438 934.160156 916.546875 C 933.824219 915.769531 933.21875 915.050781 932.59375 914.460938 C 931.992188 913.890625 931.195312 913.523438 930.492188 913.074219 C 931.488281 910.996094 932.925781 910.015625 934.902344 910.621094 C 936.75 911.179688 938.234375 913.867188 938.117188 916.027344 C 937.644531 925.140625 930.253906 927.292969 923.953125 925.195312 C 917.691406 923.117188 914.4375 915.8125 917.277344 909.179688 C 920.671875 901.253906 926.390625 895.445312 935.429688 894.070312 C 944.265625 892.71875 951.285156 896.167969 956.203125 903.285156 C 960.433594 909.414062 959.285156 916.125 955.941406 922.3125 C 954.597656 924.796875 952.457031 926.980469 950.3125 928.871094 C 941.609375 936.519531 931.679688 941.882812 920.160156 943.710938 C 910.03125 945.316406 899.839844 945.570312 889.578125 944.875 C 881.09375 944.300781 872.859375 942.871094 864.664062 940.546875 C 856.363281 938.191406 847.839844 936.605469 839.082031 934.605469 C 835.941406 937.691406 832.785156 940.808594 829.628906 943.917969 C 824.832031 948.636719 819.683594 952.871094 813.546875 955.742188 C 806.839844 958.882812 800.21875 959.035156 793.796875 955.023438 C 792.308594 954.089844 790.964844 952.882812 789.695312 951.644531 C 787.929688 949.925781 787.714844 947.914062 788.453125 945.503906 C 791.648438 935.109375 798.476562 928.992188 809.109375 926.894531 C 816.453125 925.441406 823.722656 926.011719 831.007812 927.039062 C 833.421875 927.375 835.808594 927.953125 838.34375 928.441406 C 841.734375 926.578125 843.820312 923.582031 845.894531 919.996094 C 844.660156 919.652344 843.828125 919.203125 843.011719 919.222656 C 827.898438 919.597656 812.800781 917.847656 797.664062 919.105469 C 790.878906 919.667969 784.464844 921.117188 778.472656 924.253906 C 768.894531 929.257812 760.339844 935.515625 754.242188 944.746094 C 753.058594 946.546875 752.085938 948.734375 749.753906 949.519531 " fill-opacity="1" fill-rule="nonzero"/><g clip-path="url(#3b2a2f1281)"><path fill="#252122" d="M 1019.015625 911.417969 C 1019.976562 908.253906 1021.769531 905.414062 1018.71875 903.0625 C 1012.75 903.878906 1011.742188 904.6875 1010.960938 909.300781 C 1010.28125 913.277344 1012.375 917.441406 1016.21875 919.128906 C 1024.5625 922.792969 1031.414062 919.597656 1034.976562 911.925781 C 1035.722656 910.328125 1036.125 908.542969 1036.507812 906.800781 C 1038.003906 899.984375 1035.21875 893.847656 1029.246094 890.320312 C 1017.929688 883.636719 1005.621094 886.050781 995.519531 893.523438 C 990.851562 896.976562 987.070312 901.449219 983.945312 906.394531 C 979.285156 913.742188 974.792969 921.203125 970 928.453125 C 963.800781 937.828125 956.390625 946.171875 947.027344 952.441406 C 936.265625 959.640625 924.460938 962.785156 911.503906 960.085938 C 905.410156 958.8125 899.320312 957.527344 893.234375 956.195312 C 892.390625 956.011719 891.511719 955.648438 890.851562 955.113281 C 890.433594 954.777344 890.152344 953.929688 890.238281 953.386719 C 890.320312 952.839844 890.851562 952.132812 891.355469 951.949219 C 892.140625 951.648438 893.101562 951.542969 893.9375 951.671875 C 897.667969 952.25 901.378906 953.011719 905.117188 953.558594 C 910.820312 954.398438 916.550781 955.769531 922.261719 955.753906 C 935.40625 955.699219 946.332031 949.816406 955.492188 940.746094 C 962.460938 933.851562 968.773438 926.40625 973.507812 917.609375 C 976.980469 911.148438 981.234375 905.050781 985.636719 899.167969 C 988.691406 895.101562 992.164062 891.105469 996.195312 888.089844 C 1007.226562 879.832031 1020.019531 878.566406 1031.78125 885.660156 C 1036.507812 888.507812 1039.429688 892.898438 1040.027344 898.070312 C 1041.144531 907.671875 1038.617188 916.308594 1030.457031 922.375 C 1022.980469 927.933594 1011.753906 925.136719 1007.613281 916.839844 C 1003.898438 909.386719 1007.9375 899.523438 1015.820312 897.265625 C 1020.144531 896.027344 1023.1875 897.910156 1025.355469 901.515625 C 1025.574219 901.878906 1025.777344 902.40625 1025.679688 902.773438 C 1025.183594 904.695312 1024.800781 906.6875 1023.976562 908.46875 C 1023.253906 910.027344 1022.082031 911.457031 1019.015625 911.417969 " fill-opacity="1" fill-rule="nonzero"/></g><path fill="#252122" d="M 749.230469 928.011719 C 750.277344 925.96875 750.921875 925.082031 751.214844 924.09375 C 752.390625 920.183594 754.464844 916.796875 757.023438 913.695312 C 758.859375 911.472656 760.914062 909.429688 762.722656 907.191406 C 764.109375 905.472656 765.433594 903.664062 766.464844 901.726562 C 767.257812 900.246094 766.691406 898.6875 765.53125 897.449219 C 764.34375 896.1875 762.898438 895.695312 761.339844 896.511719 C 759.992188 897.222656 758.714844 898.125 757.546875 899.101562 C 754.730469 901.457031 753.246094 904.683594 751.878906 907.996094 C 751.410156 909.125 750.382812 909.546875 749.148438 908.589844 C 748.972656 905.792969 748.929688 902.917969 748.574219 900.074219 C 748.203125 897.0625 746.71875 894.632812 743.980469 893.132812 C 741.488281 891.757812 739.039062 892.617188 738.039062 895.242188 C 736.9375 898.101562 737.140625 900.945312 738.484375 903.652344 C 739.773438 906.230469 741.09375 908.8125 742.664062 911.222656 C 745.734375 915.925781 747.800781 921.011719 749.230469 928.011719 Z M 749.523438 934.667969 C 748.824219 933.507812 748.148438 932.664062 747.769531 931.691406 C 744.988281 924.609375 741.558594 917.902344 737.316406 911.566406 C 735.734375 909.199219 734.617188 906.402344 733.816406 903.644531 C 732.417969 898.84375 733.46875 894.375 736.652344 890.46875 C 738.222656 888.542969 740.164062 887.835938 742.578125 888.519531 C 745.410156 889.316406 747.984375 890.511719 749.816406 892.976562 C 750.738281 894.210938 751.777344 895.351562 752.949219 896.761719 C 754.730469 895.457031 756.234375 894.199219 757.882812 893.167969 C 760.6875 891.40625 763.746094 890.664062 766.613281 892.78125 C 769.304688 894.777344 770.570312 897.703125 769.664062 901.050781 C 769.105469 903.15625 768.210938 905.285156 766.992188 907.070312 C 765.367188 909.449219 763.417969 911.644531 761.359375 913.664062 C 757.425781 917.496094 754.769531 922.023438 753.132812 927.238281 C 752.539062 929.140625 751.769531 931 750.988281 932.839844 C 750.761719 933.378906 750.238281 933.796875 749.523438 934.667969 " fill-opacity="1" fill-rule="nonzero"/><g clip-path="url(#570ab17048)"><g clip-path="url(#cd18ed6f9d)"><g clip-path="url(#f59be7690f)"><g clip-path="url(#70e9901773)"><path fill="#231313" d="M 825.160156 540.347656 C 806.542969 540.460938 787.871094 540.574219 769.394531 542.910156 C 762.289062 543.808594 755.148438 545.050781 748.5625 547.855469 C 738.863281 551.984375 730.65625 559.519531 725.710938 568.828125 C 729.761719 562.714844 733.804688 556.601562 737.859375 550.488281 C 739.167969 548.507812 740.535156 546.472656 742.527344 545.183594 C 744.96875 543.601562 748.011719 543.351562 750.914062 543.148438 C 774.597656 541.488281 798.28125 539.820312 821.964844 538.160156 C 825.164062 537.933594 828.523438 537.742188 831.433594 539.085938 C 833.195312 539.90625 834.664062 541.230469 836.097656 542.542969 C 840.117188 546.207031 844.136719 549.867188 848.15625 553.53125 C 808.367188 555.078125 768.722656 560.230469 729.855469 568.898438 C 728.554688 569.1875 726.523438 567.808594 727.734375 567.234375 C 734.617188 565.15625 741.511719 563.078125 748.566406 561.6875 C 779.496094 555.601562 813.015625 562.839844 842.003906 550.449219 C 838.511719 549.445312 835.339844 547.351562 833.0625 544.523438 C 832.066406 543.296875 831.195312 541.898438 829.816406 541.128906 C 828.429688 540.34375 826.753906 540.335938 825.160156 540.347656 " fill-opacity="1" fill-rule="nonzero"/></g></g></g></g><g clip-path="url(#dc03cef4ce)"><g clip-path="url(#3a08d3bd8a)"><g clip-path="url(#93b951a336)"><g clip-path="url(#15e58a5971)"><path fill="#231313" d="M 741.957031 547.589844 C 748.808594 552.824219 756.164062 557.398438 763.878906 561.25 C 758.113281 556.96875 752.347656 552.6875 746.578125 548.40625 C 744.921875 547.175781 742.09375 546.1875 741.21875 548.054688 L 741.957031 547.589844 " fill-opacity="1" fill-rule="nonzero"/></g></g></g></g><g clip-path="url(#6b4e174c62)"><g clip-path="url(#f898f317d0)"><g clip-path="url(#c58bc70814)"><g clip-path="url(#0ea43cf406)"><path fill="#231313" d="M 784.171875 541.964844 C 792.320312 546.5625 800.03125 551.9375 807.160156 557.988281 C 801.550781 552.648438 795.9375 547.308594 790.328125 541.972656 C 789.863281 541.53125 789.378906 541.074219 788.765625 540.886719 C 786.792969 540.269531 784.617188 542.621094 782.792969 541.648438 C 783.058594 540.96875 783.324219 540.289062 783.59375 539.605469 L 784.171875 541.964844 " fill-opacity="1" fill-rule="nonzero"/></g></g></g></g><g clip-path="url(#78fb7d9ee5)"><g clip-path="url(#1cb59983c7)"><g clip-path="url(#bad0f038d7)"><g clip-path="url(#5a8227c8ad)"><path fill="#231313" d="M 725.371094 570.398438 C 748.078125 580.234375 770.050781 591.75 791.054688 604.824219 C 806.90625 585.394531 830.875 573.765625 846.148438 553.878906 C 843.332031 554.195312 840.519531 554.511719 837.703125 554.828125 C 801.636719 558.917969 765.65625 563.8125 729.8125 569.511719 C 766.578125 565.699219 803.355469 561.886719 840.125 558.078125 C 822.066406 571.25 804.894531 585.632812 788.773438 601.117188 C 786.921875 596.613281 782.40625 593.75 777.8125 592.148438 C 773.214844 590.542969 768.320312 589.898438 763.761719 588.203125 C 755.816406 585.25 749.363281 579.308594 741.847656 575.402344 C 736.726562 572.738281 731.101562 571.03125 725.371094 570.398438 " fill-opacity="1" fill-rule="nonzero"/></g></g></g></g><g clip-path="url(#614055b559)"><g clip-path="url(#acaa51d793)"><g clip-path="url(#61af24f819)"><g clip-path="url(#e93e99cb11)"><path fill="#231313" d="M 784.464844 540.789062 C 777.359375 546.195312 771.191406 552.835938 766.320312 560.320312 C 773.960938 554.101562 781.175781 547.347656 787.886719 540.125 C 786.800781 539.921875 785.710938 539.71875 784.621094 539.511719 L 784.464844 540.789062 " fill-opacity="1" fill-rule="nonzero"/></g></g></g></g><g clip-path="url(#e0cecb4156)"><g clip-path="url(#e6e2dc3c1e)"><g clip-path="url(#9bf4040684)"><g clip-path="url(#eef54c2d83)"><path fill="#231313" d="M 823.617188 538.359375 C 818.355469 544.417969 813.375 550.722656 808.695312 557.242188 C 811.355469 556.371094 813.355469 554.214844 815.234375 552.144531 C 819.296875 547.652344 823.363281 543.164062 827.421875 538.671875 C 825.511719 538.355469 823.523438 538.488281 821.679688 539.070312 L 823.617188 538.359375 " fill-opacity="1" fill-rule="nonzero"/></g></g></g></g><g clip-path="url(#92384f2602)"><g clip-path="url(#21f98f9f67)"><g clip-path="url(#a2d8581109)"><g clip-path="url(#144e2dc530)"><path fill="#231313" d="M 801.757812 568.722656 C 798.9375 579.21875 794.792969 589.355469 789.449219 598.824219 C 788.667969 594.910156 786.535156 591.425781 784.441406 588.035156 C 779.472656 579.988281 774.5 571.949219 769.535156 563.90625 C 768.132812 565.042969 766.199219 565.488281 764.445312 565.082031 C 767.859375 567.316406 770.179688 570.84375 772.40625 574.261719 C 778.152344 583.113281 783.898438 591.960938 789.648438 600.808594 C 795.949219 587.25 801.964844 573.5625 807.707031 559.761719 C 804.097656 560.8125 802.734375 565.09375 801.757812 568.722656 " fill-opacity="1" fill-rule="nonzero"/></g></g></g></g><g clip-path="url(#13f33c1232)"><g clip-path="url(#0d8e22077a)"><g clip-path="url(#123ff1931c)"><g clip-path="url(#a37f31c71c)"><path fill="#231313" d="M 784.476562 600.578125 C 785.417969 604.253906 789.046875 607.335938 792.804688 606.800781 C 796.5625 606.265625 799.183594 601.335938 796.933594 598.28125 C 794.816406 599.460938 796.171875 603.625 793.929688 604.550781 C 793.25 604.835938 792.476562 604.664062 791.757812 604.464844 C 789.160156 603.746094 786.660156 602.675781 784.339844 601.308594 C 784.195312 602 784.472656 602.761719 785.023438 603.199219 L 784.476562 600.578125 " fill-opacity="1" fill-rule="nonzero"/></g></g></g></g><g clip-path="url(#efd3f4d295)"><g clip-path="url(#57b8ebc1ed)"><g clip-path="url(#2c7fac5d5b)"><g clip-path="url(#7fa38ca5a4)"><path fill="#231313" d="M 783.410156 603.472656 C 782.171875 604.074219 782.003906 605.921875 782.789062 607.054688 C 783.574219 608.191406 784.96875 608.722656 786.324219 609.003906 C 791.894531 610.148438 798.042969 607.691406 801.285156 603.015625 C 800.089844 602.078125 798.898438 601.136719 797.703125 600.203125 C 799.664062 601.792969 799.167969 605.164062 797.28125 606.832031 C 795.382812 608.5 792.65625 608.808594 790.140625 608.660156 C 788.554688 608.574219 786.863281 608.277344 785.726562 607.167969 C 784.589844 606.070312 784.371094 603.914062 785.675781 603.003906 C 784.28125 603.015625 782.953125 603.988281 782.527344 605.308594 C 783.238281 605.402344 783.949219 605.5 784.667969 605.597656 L 783.410156 603.472656 " fill-opacity="1" fill-rule="nonzero"/></g></g></g></g><g clip-path="url(#946614c08e)"><g clip-path="url(#8a0c31a6b4)"><g clip-path="url(#d09259965e)"><g clip-path="url(#0eb70eaba7)"><path fill="#231313" d="M 798.859375 605.851562 C 798.585938 604.316406 800.6875 603.605469 802.226562 603.5625 C 830.683594 602.660156 859.492188 611.589844 881.96875 629.074219 C 904.4375 646.558594 920.265625 672.574219 924.660156 700.707031 C 925.425781 705.601562 925.855469 710.546875 926.101562 715.503906 C 926.253906 718.714844 926.339844 721.941406 926.3125 725.179688 C 926.050781 709.261719 920.089844 693.964844 914.226562 679.125 C 910.507812 669.734375 906.761719 660.28125 901.21875 651.851562 C 890.578125 635.660156 873.785156 624.164062 855.703125 617.175781 C 837.613281 610.191406 818.183594 607.410156 798.859375 605.851562 " fill-opacity="1" fill-rule="nonzero"/></g></g></g></g><g clip-path="url(#79b61b4607)"><g clip-path="url(#e6428bcc20)"><g clip-path="url(#e0452f4cad)"><g clip-path="url(#b3196077a5)"><path fill="#231313" d="M 926.214844 729.753906 C 926.265625 728.429688 926.296875 727.097656 926.308594 725.769531 C 926.316406 726.085938 926.320312 726.40625 926.320312 726.71875 C 926.308594 727.734375 926.285156 728.753906 926.214844 729.753906 " fill-opacity="1" fill-rule="nonzero"/></g></g></g></g><g clip-path="url(#637f1254b3)"><g clip-path="url(#905ee24b89)"><g clip-path="url(#64b46cb9d8)"><g clip-path="url(#09e19d3344)"><path fill="#231313" d="M 728.574219 812.929688 C 728.277344 813.171875 727.992188 813.410156 727.714844 813.648438 C 727.113281 813.101562 726.523438 812.558594 725.933594 812.003906 C 721.042969 807.496094 716.324219 802.773438 711.660156 798.058594 C 707.578125 793.90625 703.476562 789.710938 700.207031 784.894531 C 691.398438 771.96875 689.144531 755.773438 688.03125 740.175781 C 687.441406 731.910156 687.117188 723.589844 687.660156 715.324219 C 688.882812 696.550781 694.734375 678.125 704.386719 661.992188 C 704.433594 661.929688 704.464844 661.867188 704.511719 661.800781 C 707.265625 657.210938 710.335938 652.808594 713.691406 648.636719 C 714.542969 647.570312 715.414062 646.523438 716.3125 645.5 C 716.359375 645.429688 716.410156 645.371094 716.46875 645.3125 C 733.308594 625.917969 756.621094 612.25 781.765625 607.003906 C 783.542969 606.621094 786.375 607.921875 785.136719 609.257812 C 775.296875 608.957031 766.273438 614.257812 757.871094 619.386719 C 748.035156 625.378906 738.136719 631.445312 729.253906 638.726562 C 729.015625 638.914062 728.78125 639.113281 728.554688 639.316406 C 726.726562 640.832031 724.957031 642.398438 723.226562 644.039062 C 722.144531 645.0625 721.082031 646.117188 720.058594 647.195312 C 719.089844 648.191406 718.144531 649.210938 717.226562 650.242188 C 713.691406 654.222656 710.484375 658.472656 707.613281 662.933594 C 707.535156 663.042969 707.464844 663.15625 707.394531 663.277344 C 690.3125 690.019531 685.007812 724.335938 690.742188 755.910156 C 691.921875 762.394531 693.53125 768.84375 696.394531 774.777344 C 700.226562 782.714844 706.128906 789.417969 712.042969 795.929688 C 716.800781 801.167969 721.636719 806.367188 726.769531 811.230469 C 727.363281 811.804688 727.964844 812.375 728.574219 812.929688 " fill-opacity="1" fill-rule="nonzero"/></g></g></g></g><g clip-path="url(#17840b2c5d)"><g clip-path="url(#b751745c06)"><g clip-path="url(#45d4a207ac)"><g clip-path="url(#c2dcadcb33)"><path fill="#231313" d="M 740.988281 823 C 741.121094 823.089844 741.261719 823.1875 741.398438 823.277344 C 741.070312 823.578125 740.746094 823.871094 740.429688 824.167969 C 739.769531 823.691406 739.128906 823.199219 738.488281 822.707031 C 738.78125 822.425781 739.078125 822.128906 739.363281 821.832031 C 739.894531 822.230469 740.449219 822.617188 740.988281 823 " fill-opacity="1" fill-rule="nonzero"/></g></g></g></g><g clip-path="url(#c2865418fb)"><g clip-path="url(#2505b218fd)"><g clip-path="url(#bf2e6dce9a)"><g clip-path="url(#3840721c1e)"><path fill="#231313" d="M 906.796875 792.5 C 901.257812 800.042969 894.480469 806.601562 887.25 812.539062 C 869.214844 827.320312 847.863281 838.410156 824.960938 842.847656 C 802.058594 847.300781 777.582031 844.871094 756.738281 834.363281 C 754.335938 833.152344 752.007812 831.851562 749.722656 830.460938 C 748.335938 829.621094 746.976562 828.75 745.636719 827.851562 C 745.78125 827.707031 745.925781 827.566406 746.070312 827.425781 C 746.3125 827.1875 746.550781 826.96875 746.78125 826.726562 C 748.179688 827.570312 749.605469 828.375 751.0625 829.132812 C 771.648438 840.015625 796.023438 843.5625 819.121094 840.105469 C 846.125 836.066406 871.363281 822.910156 891.714844 804.707031 C 896.511719 800.417969 901.078125 795.820312 904.917969 790.667969 C 912.074219 781.046875 916.535156 769.6875 920.210938 758.269531 C 923.183594 749.039062 925.714844 739.546875 926.21875 729.878906 C 925.441406 752.269531 919.960938 774.605469 906.796875 792.5 " fill-opacity="1" fill-rule="nonzero"/></g></g></g></g><g clip-path="url(#5a38f60916)"><g clip-path="url(#7e98a2d67a)"><g clip-path="url(#eec0ad2634)"><g clip-path="url(#3cf1f3f57f)"><path fill="#231313" d="M 717.710938 665.75 C 717.472656 666.105469 717.242188 666.464844 717.019531 666.832031 C 716.800781 667.175781 716.585938 667.511719 716.375 667.863281 C 715.777344 668.839844 715.199219 669.816406 714.632812 670.804688 C 715.175781 669.804688 715.738281 668.820312 716.332031 667.839844 C 716.550781 667.507812 716.769531 667.164062 716.980469 666.8125 C 717.222656 666.457031 717.453125 666.105469 717.710938 665.75 " fill-opacity="1" fill-rule="nonzero"/></g></g></g></g><g clip-path="url(#7d130bb9a7)"><g clip-path="url(#cc047596ab)"><g clip-path="url(#aa01b0a847)"><g clip-path="url(#378b5b3d14)"><path fill="#231313" d="M 791.128906 618.714844 C 780.117188 624.367188 769.09375 630.015625 758.066406 635.660156 C 751.953125 638.800781 745.75 642.015625 739.90625 645.683594 C 739.015625 646.222656 738.140625 646.78125 737.28125 647.355469 C 734.636719 649.09375 732.074219 650.9375 729.65625 652.933594 C 728.792969 653.636719 727.945312 654.351562 727.125 655.09375 C 723.804688 658.070312 720.78125 661.367188 718.179688 665.054688 C 718.0625 665.207031 717.964844 665.359375 717.859375 665.519531 C 720.332031 661.683594 723.03125 658.003906 725.976562 654.515625 C 726.574219 653.789062 727.191406 653.074219 727.816406 652.371094 C 727.953125 652.21875 728.09375 652.066406 728.230469 651.914062 C 730.167969 649.746094 732.199219 647.652344 734.328125 645.667969 C 735.128906 644.90625 735.945312 644.148438 736.773438 643.429688 C 751.945312 630.007812 771.039062 620.953125 791.128906 618.714844 " fill-opacity="1" fill-rule="nonzero"/></g></g></g></g><g clip-path="url(#cd24e43f91)"><g clip-path="url(#0fba790ed7)"><g clip-path="url(#21b05134a1)"><g clip-path="url(#3a509d0ba4)"><path fill="#231313" d="M 736.738281 804.914062 C 736.617188 805.054688 736.488281 805.191406 736.367188 805.332031 C 735.570312 804.675781 734.777344 804.019531 733.996094 803.339844 C 718.660156 790.152344 706.398438 773.699219 701.328125 754.335938 C 698.296875 742.757812 697.945312 730.585938 699.253906 718.679688 C 701.078125 701.953125 706.242188 685.523438 714.574219 670.925781 C 711.28125 677.082031 709.011719 683.792969 707.171875 690.550781 C 701.882812 709.984375 699.90625 730.570312 703.683594 750.351562 C 707.46875 770.136719 717.324219 789.09375 732.855469 801.910156 C 733.3125 802.285156 733.777344 802.671875 734.253906 803.03125 C 735.066406 803.6875 735.890625 804.304688 736.738281 804.914062 " fill-opacity="1" fill-rule="nonzero"/></g></g></g></g><g clip-path="url(#d1ec410bd7)"><g clip-path="url(#e949c68444)"><g clip-path="url(#d26483d483)"><g clip-path="url(#3d3ca30ae1)"><path fill="#231313" d="M 750.574219 813.355469 C 750.160156 813.871094 749.746094 814.371094 749.328125 814.867188 C 748.535156 814.351562 747.75 813.824219 746.972656 813.285156 C 747.320312 812.855469 747.667969 812.410156 748 811.972656 C 748.847656 812.441406 749.707031 812.898438 750.574219 813.355469 " fill-opacity="1" fill-rule="nonzero"/></g></g></g></g><g clip-path="url(#2323770551)"><g clip-path="url(#1f5e9a4d05)"><g clip-path="url(#124702261f)"><g clip-path="url(#910db64074)"><path fill="#231313" d="M 883.578125 793.757812 C 869.679688 807.066406 852.75 816.839844 835.304688 824.992188 C 827.34375 828.71875 819.121094 832.160156 810.425781 833.46875 C 792.636719 836.152344 774.761719 829.664062 759.011719 820.78125 C 758.207031 820.320312 757.402344 819.859375 756.601562 819.390625 C 756.085938 819.082031 755.574219 818.785156 755.0625 818.480469 C 755.695312 817.835938 756.304688 817.179688 756.921875 816.523438 C 758.300781 817.195312 759.6875 817.855469 761.082031 818.503906 C 761.488281 818.695312 761.898438 818.886719 762.3125 819.070312 C 772.867188 823.957031 783.898438 828.625 795.527344 828.929688 C 806.855469 829.226562 817.835938 825.371094 828.496094 821.503906 C 848.714844 814.175781 869.621094 806.210938 884.492188 790.667969 C 901.390625 773.023438 908.183594 747.6875 908.507812 723.261719 C 908.652344 712.003906 907.539062 700.609375 903.855469 689.96875 C 901.097656 682.007812 896.925781 674.5625 892.015625 667.714844 C 869.652344 636.640625 830.480469 618.496094 792.324219 621.519531 C 798.0625 616.914062 806.304688 617.617188 813.550781 618.917969 C 839.570312 623.574219 865.761719 633.476562 883.609375 652.976562 C 895.785156 666.289062 903.328125 683.285156 908.011719 700.703125 C 911.824219 714.886719 913.867188 729.796875 911.441406 744.285156 C 908.257812 763.269531 897.488281 780.4375 883.578125 793.757812 " fill-opacity="1" fill-rule="nonzero"/></g></g></g></g><g clip-path="url(#4cc1cbd628)"><g clip-path="url(#4bc356e335)"><g clip-path="url(#90dd4ca5d7)"><g clip-path="url(#628c480f45)"><path fill="#231313" d="M 747.15625 790.300781 C 746.9375 790.683594 746.722656 791.074219 746.492188 791.457031 C 745.539062 790.585938 744.597656 789.679688 743.691406 788.765625 C 727.121094 772.160156 716.796875 749.175781 716.886719 725.660156 C 716.949219 709.027344 722.222656 692.695312 731.207031 678.722656 C 731.257812 678.664062 731.300781 678.59375 731.34375 678.527344 C 734.074219 674.300781 737.15625 670.277344 740.535156 666.550781 C 740.71875 666.351562 740.90625 666.136719 741.089844 665.941406 C 744.199219 662.566406 747.554688 659.425781 751.121094 656.570312 C 751.332031 656.398438 751.542969 656.222656 751.753906 656.050781 C 759.441406 649.988281 768.089844 645.203125 777.40625 642.101562 C 770.492188 647.125 763.574219 652.128906 756.652344 657.144531 C 755.886719 657.699219 755.125 658.253906 754.355469 658.808594 C 754.003906 659.070312 753.648438 659.324219 753.300781 659.597656 C 749.789062 662.167969 746.351562 664.824219 743.15625 667.769531 C 742.890625 668.011719 742.617188 668.269531 742.359375 668.515625 C 741.960938 668.890625 741.574219 669.265625 741.191406 669.65625 C 728.113281 682.777344 721.421875 701.503906 721.113281 720.03125 C 720.8125 738.554688 726.527344 756.859375 735.445312 773.101562 C 738.117188 777.96875 741.136719 782.710938 744.554688 787.117188 C 745.394531 788.199219 746.269531 789.261719 747.15625 790.300781 " fill-opacity="1" fill-rule="nonzero"/></g></g></g></g><g clip-path="url(#506e7ea5df)"><g clip-path="url(#615a7724f0)"><g clip-path="url(#1022409fea)"><g clip-path="url(#e03eaf0b77)"><path fill="#231313" d="M 757.066406 799.828125 C 756.816406 799.671875 756.582031 799.503906 756.347656 799.347656 C 756.367188 799.335938 756.378906 799.3125 756.375 799.285156 C 756.597656 799.472656 756.84375 799.65625 757.066406 799.828125 " fill-opacity="1" fill-rule="nonzero"/></g></g></g></g><g clip-path="url(#eb15467405)"><g clip-path="url(#87feea0c64)"><g clip-path="url(#2a4992ad4e)"><g clip-path="url(#b248efab2b)"><path fill="#231313" d="M 759.042969 801.132812 C 759.023438 801.171875 759.003906 801.214844 758.972656 801.25 C 758.328125 800.796875 757.691406 800.328125 757.066406 799.828125 C 757.71875 800.277344 758.371094 800.703125 759.042969 801.132812 " fill-opacity="1" fill-rule="nonzero"/></g></g></g></g><g clip-path="url(#e7fd66b12d)"><g clip-path="url(#3bff913cf3)"><g clip-path="url(#458214c42a)"><g clip-path="url(#4b2990496a)"><path fill="#231313" d="M 775.027344 809.0625 C 773.480469 808.617188 771.960938 808.101562 770.460938 807.515625 C 769.171875 807.015625 767.910156 806.457031 766.660156 805.851562 L 766.117188 805.582031 C 766.1875 805.480469 766.261719 805.378906 766.332031 805.269531 C 767.738281 805.992188 769.164062 806.667969 770.621094 807.300781 C 772.070312 807.929688 773.535156 808.527344 775.027344 809.0625 " fill-opacity="1" fill-rule="nonzero"/></g></g></g></g><g clip-path="url(#867608a789)"><g clip-path="url(#59f6bffafe)"><g clip-path="url(#4fdaa8d223)"><g clip-path="url(#f28b14df50)"><path fill="#231313" d="M 884.949219 763.882812 C 880.398438 772.527344 875.589844 781.230469 868.5625 788.007812 C 857.003906 799.183594 840.851562 803.925781 825.378906 808.285156 C 816.132812 810.890625 806.738281 813.519531 797.136719 813.445312 C 790.199219 813.398438 783.339844 811.9375 776.78125 809.691406 C 776.195312 809.492188 775.617188 809.292969 775.042969 809.074219 C 785.304688 812.0625 796.433594 812.15625 807.03125 810.429688 C 820.605469 808.203125 833.542969 803.175781 846.304688 798.019531 C 851.257812 796.019531 856.265625 793.960938 860.636719 790.894531 C 865.84375 787.234375 869.984375 782.28125 873.691406 777.109375 C 890.738281 753.398438 899.6875 721.332031 887.835938 694.632812 C 884.28125 686.632812 879.058594 679.507812 873.894531 672.449219 C 866.957031 663.007812 859.636719 653.222656 849.160156 647.972656 C 843.886719 645.320312 838.066406 643.96875 832.273438 642.769531 C 814.734375 639.160156 796.359375 636.769531 779.074219 641.402344 C 805.117188 632.734375 835.140625 637.007812 857.738281 652.601562 C 880.339844 668.195312 894.988281 694.742188 896.128906 722.167969 C 896.410156 728.769531 895.9375 735.425781 894.308594 741.816406 C 892.328125 749.578125 888.671875 756.796875 884.949219 763.882812 " fill-opacity="1" fill-rule="nonzero"/></g></g></g></g><g clip-path="url(#f09b611cbd)"><g clip-path="url(#f64c22d8ea)"><g clip-path="url(#82dd1306da)"><g clip-path="url(#a72e4f98ef)"><path fill="#231313" d="M 549.808594 756.902344 C 550.359375 763.546875 551.398438 770.128906 552.992188 776.570312 C 551.828125 773.160156 550.90625 769.671875 550.382812 766.097656 C 549.945312 763.054688 549.789062 759.980469 549.808594 756.902344 " fill-opacity="1" fill-rule="nonzero"/></g></g></g></g><g clip-path="url(#60a484d88f)"><g clip-path="url(#538d6457ff)"><g clip-path="url(#d930acde3e)"><g clip-path="url(#59c5d1971c)"><path fill="#231313" d="M 682.867188 626.339844 C 688.496094 627.027344 694.246094 627.777344 699.777344 629.101562 L 676.3125 625.695312 C 676.953125 625.695312 677.59375 625.726562 678.230469 625.757812 C 679.777344 625.957031 681.324219 626.152344 682.867188 626.339844 " fill-opacity="1" fill-rule="nonzero"/></g></g></g></g><g clip-path="url(#033e2cc4fe)"><g clip-path="url(#45ff411979)"><g clip-path="url(#58194b2dae)"><g clip-path="url(#062d328000)"><path fill="#231313" d="M 550.535156 744.601562 C 550.1875 748.683594 549.859375 752.800781 549.808594 756.902344 C 549.195312 749.476562 549.179688 741.976562 549.683594 734.558594 C 550.65625 720.320312 553.515625 706.125 559.054688 692.96875 C 571.011719 664.589844 595.59375 642.121094 624.433594 631.335938 C 640.652344 625.265625 658.136719 622.839844 675.398438 623.734375 C 684.054688 624.191406 692.675781 625.476562 701.089844 627.570312 C 703.273438 628.109375 705.472656 628.941406 707.664062 629.886719 C 698.027344 627.570312 688.140625 626.171875 678.230469 625.757812 C 675.019531 625.371094 671.816406 624.972656 668.617188 624.574219 L 676.3125 625.695312 C 650.753906 624.90625 625.15625 630.597656 603.414062 643.867188 C 596.945312 647.8125 590.851562 652.386719 585.257812 657.5 C 575.679688 666.253906 567.519531 676.664062 562.0625 688.449219 C 553.996094 705.878906 552.15625 725.453125 550.535156 744.601562 " fill-opacity="1" fill-rule="nonzero"/></g></g></g></g><g clip-path="url(#1db79f73f2)"><g clip-path="url(#4c2dcd58a0)"><g clip-path="url(#17c41262d1)"><g clip-path="url(#ef01cc2b6a)"><path fill="#231313" d="M 708.917969 630.429688 C 708.507812 630.238281 708.085938 630.054688 707.664062 629.886719 C 708.808594 630.144531 709.941406 630.429688 711.070312 630.734375 L 708.917969 630.429688 " fill-opacity="1" fill-rule="nonzero"/></g></g></g></g><g clip-path="url(#54eb751264)"><g clip-path="url(#8edcba2260)"><g clip-path="url(#c786ac31ef)"><g clip-path="url(#2fa2e21e75)"><path fill="#231313" d="M 714.917969 631.789062 C 713.640625 631.425781 712.355469 631.066406 711.070312 630.734375 L 712.515625 630.945312 C 713.324219 631.21875 714.121094 631.496094 714.917969 631.789062 " fill-opacity="1" fill-rule="nonzero"/></g></g></g></g><g clip-path="url(#b5ea54bbed)"><g clip-path="url(#60dcd7a815)"><g clip-path="url(#7429b389b9)"><g clip-path="url(#88a252d6bf)"><path fill="#231313" d="M 699.777344 629.101562 L 708.917969 630.429688 C 714.058594 632.675781 719.175781 635.289062 724.144531 635.832031 C 724.347656 637.378906 722.535156 638.578125 720.976562 638.421875 C 719.421875 638.261719 718.097656 637.238281 716.824219 636.332031 C 711.710938 632.738281 705.882812 630.566406 699.777344 629.101562 " fill-opacity="1" fill-rule="nonzero"/></g></g></g></g><g clip-path="url(#e8e470841f)"><g clip-path="url(#c9efbe6d07)"><g clip-path="url(#d0c72ca80c)"><g clip-path="url(#684fb09a2a)"><path fill="#231313" d="M 728.167969 638.117188 C 728.535156 638.3125 728.886719 638.515625 729.253906 638.726562 C 729.015625 638.914062 728.78125 639.113281 728.554688 639.316406 C 728.402344 638.941406 728.273438 638.539062 728.167969 638.117188 " fill-opacity="1" fill-rule="nonzero"/></g></g></g></g><g clip-path="url(#e4efc460aa)"><g clip-path="url(#553b1fbc93)"><g clip-path="url(#dade09e028)"><g clip-path="url(#cfaf39573e)"><path fill="#231313" d="M 739.90625 645.683594 C 739.015625 646.222656 738.140625 646.78125 737.28125 647.355469 C 736.25 646.816406 735.25 646.261719 734.328125 645.667969 C 735.128906 644.90625 735.945312 644.148438 736.773438 643.429688 C 737.84375 644.15625 738.882812 644.894531 739.90625 645.683594 " fill-opacity="1" fill-rule="nonzero"/></g></g></g></g><g clip-path="url(#d92bb38816)"><g clip-path="url(#155bfc94b7)"><g clip-path="url(#82d5447689)"><g clip-path="url(#1bfa04fbf2)"><path fill="#231313" d="M 773.550781 802.882812 C 772.664062 804.410156 771.671875 805.882812 770.621094 807.300781 C 770.574219 807.367188 770.511719 807.4375 770.460938 807.515625 C 768.570312 810.039062 766.476562 812.445312 764.378906 814.804688 C 763.289062 816.046875 762.1875 817.277344 761.082031 818.503906 C 760.394531 819.261719 759.699219 820.023438 759.011719 820.78125 C 756.410156 823.601562 753.769531 826.402344 751.0625 829.132812 C 750.613281 829.578125 750.175781 830.03125 749.722656 830.460938 C 737.640625 842.433594 724.253906 852.957031 708.417969 858.785156 C 689.734375 865.664062 669.023438 865.378906 649.515625 861.402344 C 612.242188 853.792969 576.664062 831.28125 560.242188 796.980469 C 557.113281 790.441406 554.722656 783.59375 552.992188 776.570312 C 554.066406 779.742188 555.328125 782.855469 556.664062 785.914062 C 561.207031 796.351562 566.539062 806.515625 573.503906 815.515625 C 597.757812 846.859375 639.648438 860.628906 679.265625 859.484375 C 690.410156 859.15625 701.699219 857.757812 711.925781 853.367188 C 724.953125 847.773438 735.460938 837.746094 745.636719 827.851562 C 745.78125 827.707031 745.925781 827.566406 746.070312 827.425781 C 746.3125 827.1875 746.550781 826.96875 746.78125 826.726562 C 749.5625 824.023438 752.351562 821.28125 755.0625 818.480469 C 755.695312 817.835938 756.304688 817.179688 756.921875 816.523438 C 760.203125 813.035156 763.316406 809.414062 766.117188 805.582031 C 766.1875 805.480469 766.261719 805.378906 766.332031 805.269531 C 768.824219 801.832031 771.046875 798.222656 772.894531 794.375 C 777.835938 784.070312 779.769531 772.628906 781.589844 761.339844 C 783.746094 748.078125 785.816406 734.472656 783.269531 721.265625 C 780.949219 709.21875 774.902344 698.25 768.945312 687.511719 C 764.695312 679.851562 760.445312 672.191406 756.195312 664.539062 C 755.277344 662.878906 754.339844 661.191406 753.300781 659.597656 C 752.628906 658.535156 751.90625 657.519531 751.121094 656.570312 C 751.332031 656.398438 751.542969 656.222656 751.753906 656.050781 C 752.640625 656.953125 753.511719 657.875 754.355469 658.808594 C 765.816406 671.316406 774.40625 686.5625 779.496094 702.769531 C 787.933594 729.675781 787.15625 758.992188 779.917969 786.25 C 778.398438 792.003906 776.558594 797.75 773.550781 802.882812 " fill-opacity="1" fill-rule="nonzero"/></g></g></g></g><g clip-path="url(#7579bb458c)"><g clip-path="url(#6e5bb4cfb0)"><g clip-path="url(#224e7ac4da)"><g clip-path="url(#8846ae8b46)"><path fill="#231313" d="M 769.921875 719.507812 C 766.15625 704.894531 759.574219 690.960938 750.683594 678.746094 C 748.089844 675.191406 745.308594 671.777344 742.359375 668.515625 C 741.761719 667.84375 741.148438 667.191406 740.535156 666.550781 C 740.71875 666.351562 740.90625 666.136719 741.089844 665.941406 C 741.785156 666.539062 742.480469 667.15625 743.15625 667.769531 C 757.535156 681.066406 766.3125 699.863281 769.921875 719.507812 " fill-opacity="1" fill-rule="nonzero"/></g></g></g></g><g clip-path="url(#fcb74c2be0)"><g clip-path="url(#7e0a413a2a)"><g clip-path="url(#0c7075f88b)"><g clip-path="url(#daf7d2c5c3)"><path fill="#231313" d="M 729.65625 652.933594 C 728.792969 653.636719 727.945312 654.351562 727.125 655.09375 C 726.742188 654.90625 726.359375 654.703125 725.976562 654.515625 C 726.574219 653.789062 727.191406 653.074219 727.816406 652.371094 C 727.953125 652.21875 728.09375 652.066406 728.230469 651.914062 C 728.714844 652.238281 729.1875 652.574219 729.65625 652.933594 " fill-opacity="1" fill-rule="nonzero"/></g></g></g></g><g clip-path="url(#f831fc5c0c)"><g clip-path="url(#0557faf212)"><g clip-path="url(#5d6c5629b9)"><g clip-path="url(#50e0c35304)"><path fill="#231313" d="M 759.042969 801.132812 C 759.023438 801.171875 759.003906 801.214844 758.972656 801.25 C 756.460938 805.488281 753.65625 809.539062 750.574219 813.355469 C 750.160156 813.871094 749.746094 814.371094 749.328125 814.867188 C 746.847656 817.824219 744.203125 820.628906 741.398438 823.277344 C 741.070312 823.578125 740.746094 823.871094 740.429688 824.167969 C 735.949219 828.253906 731.109375 831.921875 725.914062 835.070312 C 713.3125 842.707031 699.085938 847.289062 684.683594 850.375 C 677.695312 851.875 670.613281 853.03125 663.460938 853.050781 C 640.75 853.132812 619.457031 841.757812 601.585938 827.734375 C 587.050781 816.339844 573.792969 802.664062 566.09375 785.871094 C 555.199219 762.082031 556.558594 734.160156 564.121094 709.121094 C 565.925781 703.152344 568.074219 697.25 571.054688 691.773438 C 574.800781 684.871094 579.8125 678.730469 584.941406 672.78125 C 594.28125 661.96875 604.378906 651.449219 616.921875 644.585938 C 640.046875 631.933594 668.320312 633.355469 694.101562 638.863281 C 701.589844 640.453125 709.210938 642.507812 716.3125 645.5 C 717.574219 646.019531 718.832031 646.589844 720.058594 647.195312 C 719.089844 648.191406 718.144531 649.210938 717.226562 650.242188 C 716.054688 649.691406 714.882812 649.164062 713.691406 648.636719 C 705.5 645.03125 697.089844 641.96875 688.398438 639.773438 C 670.757812 635.300781 651.875 634.523438 634.476562 639.867188 C 609.046875 647.710938 588.894531 668.039062 576.011719 691.3125 C 572.394531 697.859375 569.261719 704.683594 566.917969 711.773438 C 556.414062 743.5 562.910156 780.160156 583.105469 806.785156 C 603.300781 833.417969 636.492188 849.488281 669.914062 849.566406 C 685.847656 849.589844 701.871094 846.136719 716.058594 838.902344 C 724.390625 834.65625 731.890625 829.15625 738.488281 822.707031 C 738.78125 822.425781 739.078125 822.128906 739.363281 821.832031 C 742.054688 819.132812 744.597656 816.285156 746.972656 813.285156 C 747.320312 812.855469 747.667969 812.410156 748 811.972656 C 751.066406 807.984375 753.855469 803.761719 756.347656 799.347656 C 756.367188 799.335938 756.378906 799.3125 756.375 799.285156 C 767.21875 780.164062 772.628906 757.582031 771.710938 735.566406 C 771.484375 730.21875 770.894531 724.824219 769.921875 719.507812 C 773.566406 733.597656 774.589844 748.332031 772.566406 762.738281 C 770.664062 776.253906 765.996094 789.398438 759.042969 801.132812 " fill-opacity="1" fill-rule="nonzero"/></g></g></g></g><g clip-path="url(#88c9213da8)"><g clip-path="url(#99bfed9b88)"><g clip-path="url(#a9130a8f81)"><g clip-path="url(#f6cc565e32)"><path fill="#231313" d="M 731.804688 679.261719 C 731.601562 679.074219 731.414062 678.902344 731.207031 678.722656 C 731.257812 678.664062 731.300781 678.59375 731.34375 678.527344 C 731.507812 678.757812 731.664062 679.011719 731.804688 679.261719 " fill-opacity="1" fill-rule="nonzero"/></g></g></g></g><g clip-path="url(#faa3c671b5)"><g clip-path="url(#83ef79e1c1)"><g clip-path="url(#3799c5f623)"><g clip-path="url(#cb67a976ea)"><path fill="#231313" d="M 755.410156 739.261719 C 753.605469 730.050781 750.441406 721.058594 747.292969 712.175781 C 744.15625 703.335938 740.929688 694.316406 735.0625 687 C 733.628906 685.207031 731.96875 682.726562 733.3125 680.859375 C 746.800781 697.21875 754.679688 718.085938 755.410156 739.261719 " fill-opacity="1" fill-rule="nonzero"/></g></g></g></g><g clip-path="url(#16a8251215)"><g clip-path="url(#050736ad13)"><g clip-path="url(#ec4005b5d5)"><g clip-path="url(#08a2ffffd3)"><path fill="#231313" d="M 716.375 667.863281 L 716.332031 667.839844 C 716.550781 667.507812 716.769531 667.164062 716.980469 666.8125 L 717.019531 666.832031 C 716.800781 667.175781 716.585938 667.511719 716.375 667.863281 " fill-opacity="1" fill-rule="nonzero"/></g></g></g></g><g clip-path="url(#818c045d8f)"><g clip-path="url(#48ce4173e2)"><g clip-path="url(#7f7f54f288)"><g clip-path="url(#8c0049d7b4)"><path fill="#231313" d="M 747.15625 790.300781 C 746.9375 790.683594 746.722656 791.074219 746.492188 791.457031 C 743.714844 796.246094 740.425781 800.753906 736.738281 804.914062 C 736.617188 805.054688 736.488281 805.191406 736.367188 805.332031 C 733.933594 808.035156 731.324219 810.570312 728.574219 812.929688 C 728.277344 813.171875 727.992188 813.410156 727.714844 813.648438 C 723.894531 816.824219 719.796875 819.632812 715.46875 822.042969 C 689.835938 836.289062 657.617188 836.53125 630.460938 825.449219 C 623.84375 822.746094 617.460938 819.410156 611.796875 815.074219 C 590.140625 798.488281 578.136719 774.15625 577.71875 747.359375 C 577.332031 722.089844 584.867188 695.394531 603.46875 677.460938 C 620.59375 660.953125 644.597656 651.386719 668.328125 653 C 680.757812 653.839844 692.78125 657.570312 704.511719 661.800781 C 705.34375 662.097656 706.167969 662.394531 706.996094 662.703125 C 707.199219 662.78125 707.414062 662.855469 707.613281 662.933594 C 707.535156 663.042969 707.464844 663.15625 707.394531 663.277344 C 706.40625 662.824219 705.394531 662.40625 704.386719 661.992188 C 680.136719 652.167969 651.730469 652.304688 628.234375 663.957031 C 594.984375 680.4375 574.078125 719.125 579.074219 755.894531 C 584.058594 792.667969 614.914062 824.570312 651.582031 830.238281 C 662.085938 831.863281 672.8125 831.515625 683.339844 830.058594 C 694.921875 828.464844 706.511719 825.4375 716.449219 819.265625 C 719.847656 817.164062 723 814.707031 725.933594 812.003906 C 726.21875 811.75 726.488281 811.480469 726.769531 811.230469 C 729.355469 808.769531 731.753906 806.128906 733.996094 803.339844 C 734.089844 803.238281 734.179688 803.132812 734.253906 803.03125 C 734.609375 802.589844 734.960938 802.132812 735.308594 801.6875 C 738.4375 797.613281 741.242188 793.296875 743.691406 788.765625 C 743.984375 788.21875 744.28125 787.675781 744.554688 787.117188 C 751.882812 772.917969 755.722656 756.910156 755.453125 740.925781 C 755.441406 740.371094 755.421875 739.816406 755.410156 739.261719 C 756.089844 742.691406 756.574219 746.15625 756.8125 749.644531 C 757.742188 763.828125 754.085938 777.914062 747.15625 790.300781 " fill-opacity="1" fill-rule="nonzero"/></g></g></g></g></svg>